# ProBuilder 4.4.0
# https://unity3d.com/unity/features/worldbuilding/probuilder
# 25/01/2021 21:08:03

mtllib ./Atras.mtl
o Atras

g Atras
v 8.456 7.057591 8.631
v 1.706 7.057591 8.631
v 8.456 7.484945 8.697753
v 1.706 7.484945 8.697753
v 1.706 7.079171 8.492846
v 1.706 7.506525 8.5596
v 8.456 7.079171 8.492846
v 8.456 7.506525 8.5596

vt 0 0
vt -6.75 0
vt 0 0.4325356
vt -6.75 0.4325356
vt -0.1398287 0
vt -0.1398287 0.4325356
vt 6.75 0
vt 6.75 0.4325356
vt 0.1398287 0
vt 0.1398287 0.4325356
vt 0 -0.1398287
vt 6.75 -0.1398287
vt -6.75 -0.1398287

vn 0 -0.1543306 0.9880193
vn -1 0 0
vn 0 0.1543306 -0.9880193
vn 1 0 0
vn 0 0.9880193 0.1543306
vn 0 -0.9880193 -0.1543306

usemtl Blanco
f 3/3/1 4/4/1 2/2/1 1/1/1
f 4/3/2 6/6/2 5/5/2 2/1/2
f 6/8/3 8/3/3 7/1/3 5/7/3
f 8/10/4 3/3/4 1/1/4 7/9/4
f 8/11/5 6/12/5 4/7/5 3/1/5
f 1/1/6 2/2/6 5/13/6 7/11/6

