# ProBuilder 4.4.0
# https://unity3d.com/unity/features/worldbuilding/probuilder
# 25/01/2021 21:07:57

mtllib ./Bajo.mtl
o Bajo

g Bajo
v 8.383 0.17 0.5510001
v 1.633 0.17 0.5510001
v 8.383 0.9155205 0.5510001
v 1.633 0.9155205 0.5510001
v 1.633 0.17 0.5223738
v 1.633 0.9155205 0.4899068
v 8.383 0.17 0.5223738
v 8.383 0.9155205 0.4899068

vt 0 0
vt -6.75 1.490116E-08
vt 0 0.7455205
vt -6.75 0.7455205
vt -0.02862632 1.490116E-08
vt -0.06109336 0.7455205
vt 6.75 0.001245496
vt 0 0.001245496
vt 6.75 0.7474726
vt 0 0.7474726
vt 0.02862632 1.490116E-08
vt 0.06109336 0.7455205
vt 6.75 0
vt 0 -0.06109336
vt 6.75 -0.06109336
vt 0 -0.02862632
vt -6.75 -0.02862632

vn 0 0 1
vn -1 0 0
vn 0 -0.04350825 -0.9990531
vn 1 0 0
vn 0 1 0
vn 0 -1 -5.205405E-07

usemtl Negro_2
f 3/3/1 4/4/1 2/2/1 1/1/1
f 4/3/2 6/6/2 5/5/2 2/1/2
f 6/9/3 8/10/3 7/8/3 5/7/3
f 8/12/4 3/3/4 1/1/4 7/11/4
f 8/14/5 6/15/5 4/13/5 3/1/5
f 1/1/6 2/2/6 5/17/6 7/16/6

