# ProBuilder 4.4.0
# https://unity3d.com/unity/features/worldbuilding/probuilder
# 25/01/2021 21:08:49

mtllib ./Otro_2.mtl
o Otro 2

g Otro 2
v 2.971635 3.217109 0.3000714
v 2.971635 3.271568 0.2023865
v 2.971635 4.647514 0.2527537
v 2.971635 4.58672 0.1588814
v 3.270982 3.159328 0.1583029
v 6.729019 3.159328 0.1583029
v 3.270982 4.6958 0.1074765
v 6.729019 4.6958 0.1074765
v 7.028366 3.271568 0.2023865
v 7.028366 3.217109 0.3000714
v 7.028366 4.58672 0.1588814
v 7.028366 4.647514 0.2527537
v 6.7856 4.824624 0.246895
v 3.2144 4.824624 0.2468949
v 6.7856 4.747478 0.09059246
v 3.2144 4.747478 0.09059246
v 6.7856 3.106647 0.144871
v 3.2144 3.106647 0.144871
v 6.7856 3.04 0.3059301
v 3.2144 3.04 0.3059301
v 3.034717 3.108517 0.3036636
v 3.034717 3.17049 0.1683463
v 3.034717 4.685327 0.1182356
v 3.034717 4.756106 0.2491615
v 6.965283 3.17049 0.1683463
v 6.965283 3.108517 0.3036636
v 6.965283 4.685327 0.1182356
v 6.965283 4.756106 0.2491615

vt 0 0.09924197
vt -0.05366877 0.1315324
vt 0 0.900758
vt -0.05366877 0.8684676
vt 1.968312 0.06952477
vt 0.03168774 0.06952477
vt 1.968312 0.9304752
vt 0.03168774 0.9304752
vt 0.05366877 0.1315324
vt 0.05366877 0.8684676
vt 1.192093E-07 0.4127022
vt 2 0.4127022
vt 1.144068E-07 0.3150857
vt 2 0.3150856
vt 0 -0.0976165
vt -2 -0.0976165
vt 0 0
vt -2 0
vt -1.868616 0.277925
vt -1.882976 0.1813707
vt -1.97632 0.277925
vt -1.989578 0.1956862
vt 1.967518 0.04028654
vt 1.967518 0.9597135
vt 2.069161 0.07558632
vt 2.069161 0.9244137
vt 1.478992 0.5561956
vt 1.463542 0.6525816
vt 1.585464 0.5717208
vt 1.5712 0.6537921
vt 0.01545076 -0.09638597
vt 0.1219229 -0.08086076
vt 0.1076585 0.001210594
vt 0.01252858 0.9597135
vt 0.01252858 0.04028654
vt -0.08911434 0.9244137
vt -0.08911434 0.07558632
vt 0.3564673 0.3642235
vt 0.3421065 0.2676691
vt 0.2487632 0.3642235
vt 0.235505 0.2819846
vt 0.5841309 1.016333
vt 0.5124792 1.058919
vt 0.5939549 1.086005
vt 0.5424028 1.121475
vt 1.769377 0.07558632
vt 1.769377 0.9244137
vt 1.810438 0.1315324
vt 1.810438 0.8684676
vt 0.4667016 -0.1154915
vt 0.5387997 -0.07366561
vt 0.495988 -0.178406
vt 0.5478613 -0.143395
vt 0.04628721 0.1204585
vt -0.02581091 0.0786325
vt 0.01700067 0.1833731
vt -0.03487263 0.148362
vt -0.04856816 0.9244137
vt -0.04856816 0.07558632
vt -0.08962884 0.8684676
vt -0.08962884 0.1315324
vt -0.02798247 0.7927496
vt 0.04366912 0.7501632
vt -0.03780658 0.7230774
vt 0.01374544 0.6876071
vt 2 0.01388278
vt 0 0.01388278
vt 1.968312 0.04432972
vt 0.03168774 0.04432972
vt 1.954827 0.9597135
vt 1.954827 0.04028654
vt 1.922021 0.9304752
vt 1.922021 0.06952477
vt -0.02302052 0.04028654
vt -0.02302052 0.9597135
vt 0.009785805 0.06952477
vt 0.009785805 0.9304752
vt 0 0.9464182
vt 2 0.9464182
vt 0.03168774 0.9159713
vt 1.968312 0.9159713

vn -1.7856 0 0
vn 0 -0.05903519 -1.784624
vn 1.7856 0 0
vn 1.93887E-07 1.601189 -0.7902912
vn 0 -1.649917 -0.682745
vn -0.5861512 -1.558488 -0.6449109
vn -0.6083445 -1.538672 -0.6702572
vn -0.6305377 -1.518857 -0.6956035
vn -0.2515987 -0.0584462 -1.766819
vn -0.6317394 1.497626 -0.7391803
vn -0.6043571 1.492061 -0.7713969
vn -0.5769749 1.486497 -0.8036134
vn 0.6317395 -1.543204 -0.6385866
vn 0.6043556 -1.539781 -0.6711024
vn 0.5769717 -1.536357 -0.7036182
vn 0.2515987 -0.0584462 -1.766819
vn 0.5861512 1.51246 -0.7464976
vn 0.6083445 1.491013 -0.7704788
vn 0.6305377 1.469565 -0.7944602
vn -1.497969 -0.883576 -0.4046587
vn -1.514019 -0.8437743 -0.4264313
vn -1.530068 -0.8039727 -0.448204
vn -0.9099614 -0.05079416 -1.535499
vn -1.534708 0.8028935 -0.4340515
vn -1.506464 0.8218 -0.4892598
vn -1.47822 0.8407064 -0.5444681
vn 1.534705 -0.8298277 -0.3800432
vn 1.506461 -0.8523414 -0.4338816
vn 1.478217 -0.874855 -0.4877199
vn 0.9099569 -0.05079425 -1.535502
vn 1.497966 0.8549055 -0.4621696
vn 1.514016 0.8137518 -0.4812643
vn 1.530065 0.7725981 -0.5003591
vn 0 0.4411579 -1.730245
vn 0.4622975 -0.05702228 -1.723774
vn -0.4622975 -0.05702228 -1.723774
vn 0 -0.554541 -1.697307

usemtl Negro
f 3/3/1 4/4/1 2/2/1 1/1/1
f 7/7/2 8/8/2 6/6/2 5/5/2
f 11/10/3 12/3/3 10/1/3 9/9/3
f 15/13/4 16/14/4 14/12/4 13/11/4
f 19/17/5 20/18/5 18/16/5 17/15/5
f 21/21/7 22/22/8 18/20/7 20/19/6
f 22/25/9 23/26/9 16/24/9 18/23/9
f 23/29/11 24/30/12 14/28/11 16/27/10
f 25/32/14 26/33/15 19/17/14 17/31/13
f 27/36/16 25/37/16 17/35/16 15/34/16
f 28/40/18 27/41/19 15/39/18 13/38/17
f 1/44/21 2/45/22 22/43/21 21/42/20
f 2/48/23 4/49/23 23/47/23 22/46/23
f 4/52/25 3/53/26 24/51/25 23/50/24
f 9/56/28 10/57/29 26/55/28 25/54/27
f 11/60/30 9/61/30 25/59/30 27/58/30
f 12/64/32 11/65/33 27/63/32 28/62/31

usemtl Negro_2
f 5/68/34 6/69/34 17/67/34 18/66/34
f 7/72/35 5/73/35 18/71/35 16/70/35
f 6/76/36 8/77/36 15/75/36 17/74/36
f 8/80/37 7/81/37 16/79/37 15/78/37

