# ProBuilder 4.4.0
# https://unity3d.com/unity/features/worldbuilding/probuilder
# 25/01/2021 21:07:40

mtllib ./Yoistickk.mtl
o Yoistickk

g Yoistickk
v 7.17 9.767 0.75
v 7.17 9.786951 0.7484454
v 7.266655 9.785128 0.98264
v 7.266655 9.805079 0.9810854
v 7.5 9.792637 1.079003
v 7.5 9.812588 1.077448
v 7.733345 9.785128 0.98264
v 7.733345 9.805079 0.9810854
v 7.83 9.767 0.75
v 7.83 9.786951 0.7484453
v 7.733345 9.748873 0.51736
v 7.733345 9.768824 0.5158054
v 7.5 9.741364 0.4209973
v 7.5 9.761315 0.4194427
v 7.266655 9.748873 0.5173599
v 7.266655 9.768824 0.5158053
v 7.459845 10.34008 0.7053453
v 7.5 10.34008 0.7053453
v 7.471606 10.34228 0.7336536
v 7.5 10.34319 0.7453793
v 7.528394 10.34228 0.7336536
v 7.540155 10.34008 0.7053453
v 7.528394 10.33787 0.6770371
v 7.5 10.33696 0.6653114
v 7.471606 10.33787 0.6770371
v 7.463603 9.785506 0.748558
v 7.474264 9.783506 0.7228993
v 7.474264 9.787505 0.7742167
v 7.5 9.782679 0.7122711
v 7.525736 9.783506 0.7228993
v 7.536397 9.785506 0.748558
v 7.525736 9.787505 0.7742167
v 7.5 9.788334 0.7848449
v 7.530418 9.924262 0.7072356
v 7.543018 9.926624 0.7375619
v 7.5 9.923283 0.6946741
v 7.530418 9.928988 0.7678881
v 7.5 9.929967 0.7804497
v 7.469582 9.928988 0.7678881
v 7.456982 9.926624 0.7375619
v 7.469582 9.924262 0.7072356
v 7.537686 9.962466 0.6969686
v 7.553297 9.965394 0.7345409
v 7.5 9.961254 0.6814056
v 7.537686 9.968322 0.7721133
v 7.5 9.969535 0.7876763
v 7.462314 9.968322 0.7721133
v 7.446703 9.965394 0.7345409
v 7.462314 9.962466 0.6969686
v 7.544982 10.02332 0.6849092
v 7.563614 10.02681 0.7297552
v 7.5 10.02187 0.6663333
v 7.544982 10.03031 0.7746013
v 7.5 10.03175 0.7931771
v 7.455018 10.03031 0.7746013
v 7.436386 10.02681 0.7297552
v 7.455018 10.02332 0.6849092
v 7.553978 10.16589 0.6647763
v 7.576337 10.17008 0.7185915
v 7.5 10.16415 0.6424853
v 7.553978 10.17427 0.7724068
v 7.5 10.17601 0.7946978
v 7.446022 10.17427 0.7724068
v 7.423663 10.17008 0.7185915
v 7.446022 10.16589 0.6647763
v 7.565244 10.22245 0.649069
v 7.592269 10.22752 0.7141158
v 7.5 10.22035 0.6221257
v 7.565244 10.23259 0.7791626
v 7.5 10.23469 0.8061059
v 7.434756 10.23259 0.7791626
v 7.407731 10.22752 0.7141158
v 7.434756 10.22245 0.649069
v 7.565028 10.26232 0.6461788
v 7.591963 10.26737 0.7110102
v 7.5 10.26023 0.6193247
v 7.565028 10.27243 0.7758417
v 7.5 10.27452 0.8026958
v 7.434972 10.27243 0.7758417
v 7.408037 10.26737 0.7110102
v 7.434972 10.26232 0.6461788
v 7.548662 10.31837 0.6582273
v 7.568818 10.32215 0.7067421
v 7.5 10.3168 0.6381318
v 7.548662 10.32593 0.755257
v 7.5 10.3275 0.7753524
v 7.451338 10.32593 0.755257
v 7.431182 10.32215 0.7067421
v 7.451338 10.31837 0.6582273

vt -0.1262855 0
vt -0.1262855 0.02001171
vt 0.1262855 0
vt 0.1262855 0.02001171
vt 0.04015528 -4.700779E-10
vt -1.459488E-09 -4.700779E-10
vt 0.02839407 0.02839407
vt -3.214731E-09 0.04015528
vt -0.02839407 0.02839407
vt -0.04015528 -3.980564E-09
vt -0.02839407 -0.02839407
vt -9.806409E-10 -0.04015528
vt 0.02839407 -0.02839408
vt 0.3300948 -3.759343E-05
vt 0.2334412 -0.2333834
vt 0.03648807 -3.759521E-05
vt 0.0258278 -0.02577413
vt 0.2334412 0.2333833
vt 0.0258278 0.02577412
vt 4.093047E-05 -0.3300948
vt 3.796034E-05 -0.03648807
vt -0.2333857 -0.2334388
vt -0.02577438 -0.02582755
vt -0.3300948 -3.762227E-05
vt -0.03648807 -3.759838E-05
vt -0.2334412 0.2333833
vt -0.02582781 0.02577412
vt -4.094098E-05 0.3300948
vt -3.79654E-05 0.03648806
vt 0.01392848 0.01999659
vt -0.01392847 0.01999659
vt 0.0164622 0.161675
vt -0.0164622 0.161675
vt 0.01646221 0.1649661
vt -0.0164622 0.1649661
vt 0.02039566 0.2049958
vt -0.02039564 0.2049958
vt 0.02039565 0.2041845
vt -0.02039564 0.2041845
vt 0.02434408 0.2665212
vt -0.02434407 0.2665212
vt 0.02434409 0.2645228
vt -0.02434407 0.2645228
vt 0.0292129 0.4087061
vt -0.02921289 0.4087061
vt 0.02921291 0.4091778
vt -0.02921288 0.4091778
vt 0.03530978 0.4686417
vt -0.03530975 0.4686417
vt 0.03530977 0.4613025
vt -0.03530977 0.4613025
vt 0.03519288 0.5012796
vt -0.03519288 0.5012796
vt 0.03519288 0.4368995
vt -0.03519288 0.4368995
vt 0.02633562 0.4958552
vt -0.02633561 0.4958552
vt 0.2546703 0.05943379
vt 0.2375952 0.1092605
vt 0.2813939 0.08018675
vt 0.2714307 0.1092605
vt 0.1400308 0.2208637
vt 0.0929327 0.244444
vt 0.1445522 0.2543956
vt 0.1170707 0.2681547
vt 0.2375953 -0.1092605
vt 0.2546704 -0.05943383
vt 0.2714307 -0.1092605
vt 0.281394 -0.08018679
vt 0.09293276 -0.244444
vt 0.1400308 -0.2208637
vt 0.1170707 -0.2681547
vt 0.1445523 -0.2543956
vt -0.1400308 -0.2208636
vt -0.09293272 -0.244444
vt -0.1445522 -0.2543956
vt -0.1170707 -0.2681547
vt -0.2546704 -0.05943383
vt -0.2375953 -0.1092605
vt -0.281394 -0.08018679
vt -0.2714307 -0.1092605
vt -0.2375953 0.1092605
vt -0.2546704 0.05943377
vt -0.2714307 0.1092605
vt -0.281394 0.08018674
vt -0.09293264 0.244444
vt -0.1400307 0.2208637
vt -0.1170706 0.2681547
vt -0.1445522 0.2543957

vn -1 -2.505966E-09 -3.216032E-08
vn -0.7071068 0.054932 0.7049698
vn 1.61289E-08 0.07768558 0.9969779
vn 0.7071068 0.054932 0.7049698
vn 1 0 0
vn 0.7071068 -0.054932 -0.7049698
vn 4.83867E-08 -0.07768558 -0.9969779
vn -0.7071068 -0.05493201 -0.7049699
vn 0 0.9969779 -0.07768558
vn 0.00493732 0.9971226 -0.07564555
vn 0.00493732 0.9968048 -0.0797234
vn 0.002045104 0.9973473 -0.07276207
vn -0.002045105 0.9973473 -0.07276207
vn -0.00493732 0.9971226 -0.07564555
vn -0.00493732 0.9968048 -0.0797234
vn -0.002045105 0.9965802 -0.08260687
vn 0.002045105 0.9965802 -0.08260687
vn 0.9230181 -0.07274579 -0.3778171
vn 0.3823266 -0.1147497 -0.9168745
vn 0.9230181 -0.01334325 0.3845252
vn 0.3823266 0.02866068 0.9235827
vn -0.3823265 0.02866069 0.9235827
vn -0.923018 -0.01334325 0.3845253
vn -0.923018 -0.07274576 -0.3778172
vn -0.3823265 -0.1147497 -0.9168745
vn 0.8975064 -0.2653917 -0.3522065
vn 0.3717594 -0.3062348 -0.8763648
vn 0.8975064 -0.2076311 0.3890649
vn 0.3717592 -0.1667881 0.9132233
vn -0.3717592 -0.1667882 0.9132233
vn -0.8975064 -0.2076311 0.3890651
vn -0.8975064 -0.2653919 -0.3522067
vn -0.3717592 -0.3062348 -0.8763649
vn 0.9130138 -0.1818344 -0.3651603
vn 0.3781828 -0.223383 -0.8983751
vn 0.9130138 -0.1230757 0.3889193
vn 0.3781827 -0.08152702 0.9221341
vn -0.3781826 -0.08152711 0.922134
vn -0.9130138 -0.1230757 0.3889193
vn -0.9130138 -0.1818344 -0.3651603
vn -0.3781827 -0.2233831 -0.8983752
vn 0.9208043 -0.1109074 -0.3739237
vn 0.3814095 -0.1528106 -0.9116884
vn 0.9208043 -0.05164734 0.3865902
vn 0.3814098 -0.009744148 0.9243547
vn -0.3814097 -0.009744148 0.9243547
vn -0.9208043 -0.05164732 0.3865902
vn -0.9208043 -0.1109074 -0.3739238
vn -0.3814095 -0.1528106 -0.9116884
vn 0.8951284 -0.2755866 -0.3504241
vn 0.3707743 -0.3163215 -0.8731937
vn 0.8951284 -0.2179791 0.3888834
vn 0.3707745 -0.1772444 0.9116527
vn -0.3707744 -0.1772443 0.9116528
vn -0.8951284 -0.2179791 0.3888835
vn -0.8951284 -0.2755867 -0.3504242
vn -0.3707741 -0.3163215 -0.8731937
vn 0.9238565 -0.02269084 -0.3820658
vn 0.3826739 -0.06473297 -0.921613
vn 0.9238565 0.03676561 0.3809691
vn 0.382674 0.07880773 0.9205162
vn -0.3826739 0.0788077 0.9205163
vn -0.9238566 0.03676565 0.3809691
vn -0.9238566 -0.02269087 -0.3820657
vn -0.3826738 -0.06473293 -0.921613
vn 0.8609684 0.3339007 -0.3837237
vn 0.3566248 0.2947205 -0.8865431
vn 0.8609682 0.3893099 0.3273704
vn 0.3566249 0.4284902 0.8301897
vn -0.3566248 0.4284902 0.8301898
vn -0.8609683 0.3893099 0.3273704
vn -0.8609684 0.3339007 -0.3837236
vn -0.3566246 0.2947205 -0.8865432
vn 0.5189635 0.8081264 -0.2785834
vn 0.2149617 0.7845098 -0.5816665
vn 0.5189635 0.8415252 0.1500408
vn 0.2149618 0.8651417 0.4531239
vn -0.2149618 0.8651417 0.4531239
vn -0.5189635 0.8415252 0.1500408
vn -0.5189635 0.8081263 -0.2785833
vn -0.2149616 0.7845098 -0.5816665

usemtl Negro
f 19/7/9 18/6/9 17/5/9
f 20/8/9 18/6/9 19/7/9
f 21/9/9 18/6/9 20/8/9
f 22/10/9 18/6/9 21/9/9
f 23/11/9 18/6/9 22/10/9
f 24/12/9 18/6/9 23/11/9
f 25/13/9 18/6/9 24/12/9
f 17/5/9 18/6/9 25/13/9
f 4/4/2 2/2/1 1/1/1
f 1/1/1 3/3/2 4/4/2
f 6/4/3 4/2/2 3/1/2
f 3/1/2 5/3/3 6/4/3
f 8/4/4 6/2/3 5/1/3
f 5/1/3 7/3/4 8/4/4
f 10/4/5 8/2/4 7/1/4
f 7/1/4 9/3/5 10/4/5
f 12/4/6 10/2/5 9/1/5
f 9/1/5 11/3/6 12/4/6
f 14/4/7 12/2/6 11/1/6
f 11/1/6 13/3/7 14/4/7
f 16/4/8 14/2/7 13/1/7
f 13/1/7 15/3/8 16/4/8
f 2/4/1 16/2/8 15/1/8
f 15/1/8 1/3/1 2/4/1
f 27/17/10 16/15/10 2/14/10
f 2/14/10 26/16/10 27/17/10
f 26/16/11 2/14/11 4/18/11
f 4/18/11 28/19/11 26/16/11
f 29/21/12 14/20/12 16/15/12
f 16/15/12 27/17/12 29/21/12
f 30/23/13 12/22/13 14/20/13
f 14/20/13 29/21/13 30/23/13
f 31/25/14 10/24/14 12/22/14
f 12/22/14 30/23/14 31/25/14
f 32/27/15 8/26/15 10/24/15
f 10/24/15 31/25/15 32/27/15
f 33/29/16 6/28/16 8/26/16
f 8/26/16 32/27/16 33/29/16
f 28/19/17 4/18/17 6/28/17
f 6/28/17 33/29/17 28/19/17
f 43/37/26 35/35/26 34/34/26
f 34/34/26 42/36/26 43/37/26
f 42/37/27 34/35/27 36/34/27
f 36/34/27 44/36/27 42/37/27
f 45/37/28 37/35/28 35/34/28
f 35/34/28 43/36/28 45/37/28
f 46/37/29 38/35/29 37/34/29
f 37/34/29 45/36/29 46/37/29
f 47/37/30 39/35/30 38/34/30
f 38/34/30 46/36/30 47/37/30
f 48/37/31 40/35/31 39/34/31
f 39/34/31 47/36/31 48/37/31
f 49/37/32 41/35/32 40/34/32
f 40/34/32 48/36/32 49/37/32
f 44/37/33 36/35/33 41/34/33
f 41/34/33 49/36/33 44/37/33
f 51/41/34 43/39/34 42/38/34
f 42/38/34 50/40/34 51/41/34
f 50/41/35 42/39/35 44/38/35
f 44/38/35 52/40/35 50/41/35
f 53/41/36 45/39/36 43/38/36
f 43/38/36 51/40/36 53/41/36
f 54/41/37 46/39/37 45/38/37
f 45/38/37 53/40/37 54/41/37
f 55/41/38 47/39/38 46/38/38
f 46/38/38 54/40/38 55/41/38
f 56/41/39 48/39/39 47/38/39
f 47/38/39 55/40/39 56/41/39
f 57/41/40 49/39/40 48/38/40
f 48/38/40 56/40/40 57/41/40
f 52/41/41 44/39/41 49/38/41
f 49/38/41 57/40/41 52/41/41
f 59/45/42 51/43/42 50/42/42
f 50/42/42 58/44/42 59/45/42
f 58/45/43 50/43/43 52/42/43
f 52/42/43 60/44/43 58/45/43
f 61/45/44 53/43/44 51/42/44
f 51/42/44 59/44/44 61/45/44
f 62/45/45 54/43/45 53/42/45
f 53/42/45 61/44/45 62/45/45
f 63/45/46 55/43/46 54/42/46
f 54/42/46 62/44/46 63/45/46
f 64/45/47 56/43/47 55/42/47
f 55/42/47 63/44/47 64/45/47
f 65/45/48 57/43/48 56/42/48
f 56/42/48 64/44/48 65/45/48
f 60/45/49 52/43/49 57/42/49
f 57/42/49 65/44/49 60/45/49
f 67/49/50 59/47/50 58/46/50
f 58/46/50 66/48/50 67/49/50
f 66/49/51 58/47/51 60/46/51
f 60/46/51 68/48/51 66/49/51
f 69/49/52 61/47/52 59/46/52
f 59/46/52 67/48/52 69/49/52
f 70/49/53 62/47/53 61/46/53
f 61/46/53 69/48/53 70/49/53
f 71/49/54 63/47/54 62/46/54
f 62/46/54 70/48/54 71/49/54
f 72/49/55 64/47/55 63/46/55
f 63/46/55 71/48/55 72/49/55
f 73/49/56 65/47/56 64/46/56
f 64/46/56 72/48/56 73/49/56
f 68/49/57 60/47/57 65/46/57
f 65/46/57 73/48/57 68/49/57
f 75/53/58 67/51/58 66/50/58
f 66/50/58 74/52/58 75/53/58
f 74/53/59 66/51/59 68/50/59
f 68/50/59 76/52/59 74/53/59
f 77/53/60 69/51/60 67/50/60
f 67/50/60 75/52/60 77/53/60
f 78/53/61 70/51/61 69/50/61
f 69/50/61 77/52/61 78/53/61
f 79/53/62 71/51/62 70/50/62
f 70/50/62 78/52/62 79/53/62
f 80/53/63 72/51/63 71/50/63
f 71/50/63 79/52/63 80/53/63
f 81/53/64 73/51/64 72/50/64
f 72/50/64 80/52/64 81/53/64
f 76/53/65 68/51/65 73/50/65
f 73/50/65 81/52/65 76/53/65
f 83/57/66 75/55/66 74/54/66
f 74/54/66 82/56/66 83/57/66
f 82/57/67 74/55/67 76/54/67
f 76/54/67 84/56/67 82/57/67
f 85/57/68 77/55/68 75/54/68
f 75/54/68 83/56/68 85/57/68
f 86/57/69 78/55/69 77/54/69
f 77/54/69 85/56/69 86/57/69
f 87/57/70 79/55/70 78/54/70
f 78/54/70 86/56/70 87/57/70
f 88/57/71 80/55/71 79/54/71
f 79/54/71 87/56/71 88/57/71
f 89/57/72 81/55/72 80/54/72
f 80/54/72 88/56/72 89/57/72
f 84/57/73 76/55/73 81/54/73
f 81/54/73 89/56/73 84/57/73
f 22/61/74 83/59/74 82/58/74
f 82/58/74 23/60/74 22/61/74
f 23/65/75 82/63/75 84/62/75
f 84/62/75 24/64/75 23/65/75
f 21/69/76 85/67/76 83/66/76
f 83/66/76 22/68/76 21/69/76
f 20/73/77 86/71/77 85/70/77
f 85/70/77 21/72/77 20/73/77
f 19/77/78 87/75/78 86/74/78
f 86/74/78 20/76/78 19/77/78
f 17/81/79 88/79/79 87/78/79
f 87/78/79 19/80/79 17/81/79
f 25/85/80 89/83/80 88/82/80
f 88/82/80 17/84/80 25/85/80
f 24/89/81 84/87/81 89/86/81
f 89/86/81 25/88/81 24/89/81

usemtl Blanco
f 34/32/18 35/33/18 31/31/18 30/30/18
f 36/32/19 34/33/19 30/31/19 29/30/19
f 35/32/20 37/33/20 32/31/20 31/30/20
f 37/32/21 38/33/21 33/31/21 32/30/21
f 38/32/22 39/33/22 28/31/22 33/30/22
f 39/32/23 40/33/23 26/31/23 28/30/23
f 40/32/24 41/33/24 27/31/24 26/30/24
f 41/32/25 36/33/25 29/31/25 27/30/25

